<?xml version="1.0" encoding="utf-8"?>
<svg version="1.1" xmlns="http://www.w3.org/2000/svg" x="0px" y="0px" viewBox="0 0 4975 4975" style="enable-background:new 0 0 4975 4975;">
  <g>
    <g style="" transform="matrix(2.386502, 0, 0, 2.386502, -3530.999268, -3589.807617)">
      <g>
        <g>
          <polygon style="fill:#F7941D;" points="2545.921,2275.157 2904.65,2145.786 2545.921,1787.056 &#9;&#9;&#9;&#9;&#9;"/>
          <polygon style="fill:#152836;" points="2545.922,2796.791 2545.921,3390.046 3463.643,2701.681 3167.014,2405.055 &#9;&#9;&#9;&#9;&#9;"/>
          <polygon style="fill:#603913;" points="3166.758,2406.54 2904.711,2144.495 2545.921,2273.929 2545.921,2798.021 &#9;&#9;&#9;&#9;&#9;"/>
        </g>
        <g>
          <polygon style="fill:#FFDA00;" points="2545.921,2276.276 2187.192,2146.903 2545.921,1788.174 &#9;&#9;&#9;&#9;&#9;"/>
          <polygon style="fill:#166BA3;" points="2545.922,2797.91 2545.921,3391.165 1629.748,2704.346 1926.375,2407.721 &#9;&#9;&#9;&#9;&#9;"/>
          <polygon style="fill:#EF4136;" points="1925.761,2408.335 2187.807,2146.289 2545.921,2275.044 2545.921,2799.139 &#9;&#9;&#9;&#9;&#9;"/>
        </g>
      </g>
    </g>
  </g>
  <g id="Layer_5"/>
</svg>